{
 "asset": {
  "version": "2.0",
  "generator": "obj2gltf (cycle-count-route-optimizer)"
 },
 "scene": 0,
 "scenes": [
  {
   "name": "Scene",
   "nodes": [
    0
   ]
  }
 ],
 "nodes": [
  {
   "name": "wooden_pallet_01",
   "mesh": 0
  }
 ],
 "meshes": [
  {
   "name": "wooden_pallet_01",
   "primitives": [
    {
     "attributes": {
      "POSITION": 0,
      "NORMAL": 1,
      "TEXCOORD_0": 2
     },
     "indices": 3,
     "material": 0
    }
   ]
  }
 ],
 "materials": [
  {
   "name": "wooden_pallet_01",
   "doubleSided": false,
   "pbrMetallicRoughness": {
    "baseColorTexture": {
     "index": 0
    },
    "metallicFactor": 0.0,
    "roughnessFactor": 0.85
   }
  }
 ],
 "textures": [
  {
   "source": 0,
   "sampler": 0
  }
 ],
 "samplers": [
  {
   "magFilter": 9729,
   "minFilter": 9987,
   "wrapS": 10497,
   "wrapT": 10497
  }
 ],
 "images": [
  {
   "uri": "textures/wooden_pallet_01_diff_512.jpg"
  }
 ],
 "accessors": [
  {
   "bufferView": 0,
   "componentType": 5126,
   "count": 360,
   "type": "VEC3",
   "min": [
    -0.620132,
    0.000756,
    -0.636814
   ],
   "max": [
    0.621292,
    0.156759,
    0.636633
   ]
  },
  {
   "bufferView": 1,
   "componentType": 5126,
   "count": 360,
   "type": "VEC3"
  },
  {
   "bufferView": 2,
   "componentType": 5126,
   "count": 360,
   "type": "VEC2"
  },
  {
   "bufferView": 3,
   "componentType": 5123,
   "count": 540,
   "type": "SCALAR"
  }
 ],
 "bufferViews": [
  {
   "buffer": 0,
   "byteOffset": 0,
   "byteLength": 4320,
   "target": 34962
  },
  {
   "buffer": 0,
   "byteOffset": 4320,
   "byteLength": 4320,
   "target": 34962
  },
  {
   "buffer": 0,
   "byteOffset": 8640,
   "byteLength": 2880,
   "target": 34962
  },
  {
   "buffer": 0,
   "byteOffset": 11520,
   "byteLength": 1080,
   "target": 34963
  }
 ],
 "buffers": [
  {
   "uri": "wooden_pallet_01.bin",
   "byteLength": 12600
  }
 ]
}